<?xml version="1.0" encoding="UTF-8"?>
<svg id="Logo" xmlns="http://www.w3.org/2000/svg" viewBox="0 0 764.88 398.13">
  <defs>
    <style>
      .cls-1 {
        fill: #fff;
      }
    </style>
  </defs>
  <g>
    <path class="cls-1" d="M165.52,189.06c-11.61-.5-22.34,3.18-30.83,9.65v-48.06c0-5.16-4.19-9.35-9.35-9.35h0c-5.16,0-9.35,4.19-9.35,9.35v85.01c0,26.43,21.28,48.35,47.71,48.2,26.76-.16,48.27-22.49,47.09-49.54-1.06-24.38-20.88-44.19-45.26-45.25ZM163.41,265.15c-15.83,0-28.71-12.88-28.71-28.71s12.88-28.71,28.71-28.71,28.71,12.88,28.71,28.71-12.88,28.71-28.71,28.71Z"/>
    <g>
      <rect class="cls-1" x="227.93" y="236.44" width="58.47" height="18.7" rx="9.35" ry="9.35"/>
      <rect class="cls-1" x="164.21" y="134.22" width="63.51" height="18.7" rx="9.35" ry="9.35" transform="translate(-11.78 269.49) rotate(-67.45)"/>
      <rect class="cls-1" x="223.27" y="193.84" width="65.4" height="18.7" rx="9.35" ry="9.35" transform="translate(-58.27 113.42) rotate(-22.5)"/>
      <rect class="cls-1" x="197.3" y="150.55" width="84.59" height="18.7" rx="9.35" ry="9.35" transform="translate(-42.89 216.25) rotate(-45)"/>
    </g>
  </g>
  <g>
    <path class="cls-1" d="M345.35,255.83c-1.71,0-3.51-.17-5.38-.49-1.88-.33-3.72-.97-5.53-1.93-1.81-.95-3.51-2.32-5.09-4.1l-.1,5.83h-13.53v-69.91h13.83v24c1.97-2.37,4.43-4.13,7.36-5.28,2.93-1.15,5.97-1.73,9.13-1.73,5.13,0,9.35,1.17,12.64,3.51,3.29,2.34,5.74,5.51,7.36,9.53,1.61,4.02,2.42,8.62,2.42,13.83s-.82,9.63-2.47,13.68c-1.65,4.05-4.16,7.24-7.55,9.58-3.39,2.34-7.75,3.51-13.08,3.51ZM342.39,243.49c3.22,0,5.73-.72,7.5-2.17,1.78-1.45,3.03-3.29,3.75-5.53.72-2.24,1.09-4.57,1.09-7.01s-.4-4.72-1.18-6.86c-.79-2.14-2.09-3.85-3.9-5.13-1.81-1.28-4.23-1.93-7.26-1.93-2.77,0-5.12.68-7.06,2.02-1.94,1.35-3.41,3.11-4.39,5.28-.99,2.17-1.48,4.51-1.48,7.01s.44,4.86,1.33,7.06c.89,2.21,2.29,3.97,4.2,5.28,1.91,1.32,4.38,1.97,7.41,1.97Z"/>
    <path class="cls-1" d="M400.05,255.83c-5.27,0-9.88-1.07-13.82-3.21-3.95-2.14-7.01-5.2-9.18-9.18-2.17-3.98-3.26-8.71-3.26-14.17s1.1-10.42,3.31-14.47c2.21-4.05,5.28-7.16,9.23-9.33,3.95-2.17,8.49-3.26,13.63-3.26s9.84,1.12,13.73,3.36c3.88,2.24,6.91,5.37,9.08,9.38,2.17,4.02,3.26,8.82,3.26,14.42s-1.07,10.19-3.21,14.17c-2.14,3.98-5.13,7.03-8.99,9.13-3.85,2.11-8.44,3.16-13.77,3.16ZM399.86,243.19c3.03,0,5.46-.66,7.31-1.97,1.84-1.32,3.18-3.04,4-5.18.82-2.14,1.23-4.39,1.23-6.76s-.41-4.64-1.23-6.81c-.82-2.17-2.14-3.97-3.95-5.38-1.81-1.42-4.26-2.12-7.36-2.12s-5.37.71-7.21,2.12c-1.84,1.42-3.18,3.21-4,5.38-.82,2.17-1.23,4.44-1.23,6.81s.41,4.71,1.23,6.81c.82,2.11,2.16,3.82,4,5.13,1.84,1.32,4.25,1.97,7.21,1.97Z"/>
    <path class="cls-1" d="M462.96,255.83c-1.71,0-3.51-.17-5.38-.49-1.88-.33-3.72-.97-5.53-1.93-1.81-.95-3.51-2.32-5.09-4.1l-.1,5.83h-13.53v-69.91h13.83v24c1.97-2.37,4.43-4.13,7.36-5.28,2.93-1.15,5.97-1.73,9.13-1.73,5.13,0,9.35,1.17,12.64,3.51,3.29,2.34,5.74,5.51,7.36,9.53,1.61,4.02,2.42,8.62,2.42,13.83s-.82,9.63-2.47,13.68c-1.65,4.05-4.16,7.24-7.55,9.58-3.39,2.34-7.75,3.51-13.08,3.51ZM459.99,243.49c3.22,0,5.73-.72,7.5-2.17,1.78-1.45,3.03-3.29,3.75-5.53.72-2.24,1.09-4.57,1.09-7.01s-.4-4.72-1.18-6.86c-.79-2.14-2.09-3.85-3.9-5.13-1.81-1.28-4.23-1.93-7.26-1.93-2.77,0-5.12.68-7.06,2.02-1.94,1.35-3.41,3.11-4.39,5.28-.99,2.17-1.48,4.51-1.48,7.01s.44,4.86,1.33,7.06c.89,2.21,2.29,3.97,4.2,5.28,1.91,1.32,4.38,1.97,7.41,1.97Z"/>
    <path class="cls-1" d="M494.55,273.9v-70.8h8l.4,7.8c1.78-2.7,4.2-4.77,7.26-6.22,3.06-1.45,6.37-2.17,9.92-2.17,5.27,0,9.58,1.17,12.94,3.51,3.36,2.34,5.84,5.51,7.46,9.53,1.61,4.02,2.42,8.56,2.42,13.63s-.82,9.61-2.47,13.63c-1.65,4.02-4.18,7.18-7.6,9.48-3.42,2.3-7.8,3.46-13.13,3.46-2.63,0-5-.28-7.11-.84-2.11-.56-3.95-1.38-5.53-2.47-1.58-1.09-2.96-2.35-4.15-3.8v25.28h-8.39ZM519.04,248.33c3.82,0,6.85-.87,9.08-2.62,2.24-1.74,3.87-4.06,4.89-6.96,1.02-2.9,1.53-6.09,1.53-9.58s-.51-6.78-1.53-9.68c-1.02-2.9-2.68-5.2-4.99-6.91-2.31-1.71-5.37-2.57-9.18-2.57-3.42,0-6.34.87-8.74,2.62-2.4,1.75-4.23,4.08-5.48,7.01-1.25,2.93-1.88,6.14-1.88,9.63s.59,6.88,1.78,9.78c1.19,2.9,3,5.17,5.43,6.81,2.43,1.65,5.46,2.47,9.08,2.47Z"/>
    <path class="cls-1" d="M569.3,255.73c-2.37,0-4.66-.31-6.86-.94-2.21-.62-4.18-1.58-5.92-2.86-1.75-1.28-3.13-2.9-4.15-4.84-1.02-1.94-1.53-4.2-1.53-6.76,0-2.96.54-5.46,1.63-7.5,1.09-2.04,2.55-3.65,4.39-4.84,1.84-1.18,3.98-2.04,6.42-2.57,2.43-.53,4.97-.79,7.6-.79h15.31c0-2.96-.41-5.53-1.23-7.7-.82-2.17-2.16-3.87-4-5.08-1.84-1.22-4.28-1.83-7.31-1.83-1.84,0-3.55.2-5.13.59-1.58.39-2.93,1.02-4.05,1.88-1.12.86-1.94,2.01-2.47,3.46h-8.99c.46-2.37,1.37-4.39,2.72-6.07,1.35-1.68,3-3.06,4.94-4.15,1.94-1.09,4.03-1.89,6.27-2.42,2.24-.53,4.48-.79,6.71-.79,7.5,0,12.84,2.21,16,6.62,3.16,4.41,4.74,10.37,4.74,17.87v28.14h-7.01l-.49-6.62c-1.45,1.98-3.19,3.49-5.23,4.54-2.04,1.05-4.13,1.76-6.27,2.12-2.14.36-4.16.54-6.07.54ZM570.09,248.33c3.29,0,6.14-.54,8.54-1.63,2.4-1.09,4.26-2.68,5.58-4.79,1.32-2.11,1.97-4.67,1.97-7.7v-2.57h-9.18c-2.17,0-4.31.03-6.42.1-2.11.07-4.02.33-5.73.79-1.71.46-3.08,1.25-4.1,2.37-1.02,1.12-1.53,2.73-1.53,4.84,0,1.97.51,3.59,1.53,4.84,1.02,1.25,2.37,2.19,4.05,2.81,1.68.63,3.44.94,5.28.94Z"/>
    <path class="cls-1" d="M628.75,278.44c-4.02,0-7.88-.56-11.6-1.68-3.72-1.12-7.06-3.06-10.02-5.83l3.65-6.62c2.57,2.04,5.31,3.65,8.25,4.84,2.93,1.19,6.01,1.78,9.23,1.78,5.4,0,9.26-1.56,11.6-4.69,2.34-3.13,3.51-7.09,3.51-11.9v-6.22c-1.19,1.78-2.68,3.24-4.49,4.39-1.81,1.15-3.8,2.01-5.97,2.57-2.17.56-4.41.84-6.71.84-5.13,0-9.18-1.02-12.15-3.06-2.96-2.04-5.07-4.87-6.32-8.49-1.25-3.62-1.88-7.8-1.88-12.54v-28.74h8.39v26.37c0,2.37.15,4.69.44,6.96.3,2.27.9,4.31,1.83,6.12.92,1.81,2.27,3.26,4.05,4.34s4.15,1.63,7.11,1.63c3.75,0,6.76-.92,9.04-2.76,2.27-1.84,3.92-4.31,4.94-7.41,1.02-3.09,1.53-6.52,1.53-10.27v-24.98h8.39v52.04c0,3.75-.49,7.08-1.48,9.97-.99,2.9-2.47,5.33-4.44,7.31-1.97,1.98-4.36,3.47-7.16,4.49-2.8,1.02-6.04,1.53-9.73,1.53Z"/>
  </g>
</svg>